# xmcd
#
# Track frame offsets:
#	150
#	8117
#	21227
#	32959
#	50787
#	59102
#	67586
#	81911
#	91082
#	99346
#	117402
#	136644
#	150933
#	165861
#	174834
#	187521
#	195927
#	205488
#	216576
#	227663
#	233422
#	237789
#	241966
#	245577
#	253001
#	260472
#	270822
#	284154
#	291987
#
# Disc length: 3959 seconds
#
# Revision: 0
# Processed by: cddbd v1.5.1PL0 Copyright (c) Steve Scherf et al.
# Submitted via: dBpowerAMP V4.0
#
DISCID=820f751d
DTITLE=V. A. - 本土音樂的傳唱與欣賞-原住民音樂一
DYEAR=1900
DGENRE=
TTITLE0=501-Ta Li An
TTITLE1=502-Wu Sa Ba Ga Lain
TTITLE2=503-Sa Ka Ma Lu
TTITLE3=504-Sa Bee Bu Ta Bu
TTITLE4=505-Mi Ka Swuee E Dos
TTITLE5=506-Ma Ha Me A Lu Ma Lu
TTITLE6=507-找朋友
TTITLE7=508-Kajiazianan
TTITLE8=509-Uniu
TTITLE9=510-I Luan
TTITLE10=511-懷歌
TTITLE11=512-青年之頌
TTITLE12=513-思戀歌
TTITLE13=514-鼻笛演奏
TTITLE14=515-Di No No
TTITLE15=516-I Na La I Na
TTITLE16=517-Bu Si Li Vo Lo
TTITLE17=518-Saw Ba Li Ba Li Va Ne
TTITLE18=519-祭猴之歌一
TTITLE19=520-祭猴之歌二
TTITLE20=521-等朋友
TTITLE21=522-鈴鐺聲響
TTITLE22=523-婦女送行歌
TTITLE23=524-放牛歌
TTITLE24=525-工作歌
TTITLE25=526-送別歌
TTITLE26=527-工作房落成之歌
TTITLE27=528-祈願歌
TTITLE28=529-搖籃歌
EXTD=本土音樂的傳唱與欣賞-原住民音樂一
EXTT0=
EXTT1=
EXTT2=
EXTT3=
EXTT4=
EXTT5=
EXTT6=
EXTT7=
EXTT8=
EXTT9=
EXTT10=
EXTT11=
EXTT12=
EXTT13=
EXTT14=
EXTT15=
EXTT16=
EXTT17=
EXTT18=
EXTT19=
EXTT20=
EXTT21=
EXTT22=
EXTT23=
EXTT24=
EXTT25=
EXTT26=
EXTT27=
EXTT28=
PLAYORDER=
